<svg xmlns="http://www.w3.org/2000/svg" width="31.263" height="67.295" viewBox="0 0 31.263 67.295">
  <path id="facebook" d="M15.889,66.447a.846.846,0,0,0,.847.847H28.818a.846.846,0,0,0,.847-.847V33.382h8.759a.848.848,0,0,0,.845-.778l.841-9.96a.847.847,0,0,0-.843-.919h-9.6V14.658a3,3,0,0,1,3-3h6.751a.846.846,0,0,0,.847-.847V.847A.848.848,0,0,0,39.415,0h-11.4A12.119,12.119,0,0,0,15.891,12.119v9.606H9.847A.847.847,0,0,0,9,22.571v9.964a.846.846,0,0,0,.847.847h6.042Z" transform="translate(-9)" fill="#222129" fill-rule="evenodd"/>
</svg>
