<svg xmlns="http://www.w3.org/2000/svg" width="64.295" height="64.295" viewBox="0 0 64.295 64.295">
  <path id="instagram" d="M58.229,44.928a13.3,13.3,0,0,1-13.3,13.3H19.367a13.3,13.3,0,0,1-13.3-13.3V19.365a13.3,13.3,0,0,1,13.3-13.3H44.928a13.3,13.3,0,0,1,13.3,13.3Zm6.066-25.563A19.367,19.367,0,0,0,44.926,0H19.369A19.365,19.365,0,0,0,0,19.365V44.928A19.368,19.368,0,0,0,19.369,64.295H44.926A19.369,19.369,0,0,0,64.295,44.926ZM32.256,42.732A10.171,10.171,0,1,1,42.427,32.561,10.183,10.183,0,0,1,32.256,42.732Zm0-26.048A15.877,15.877,0,1,0,48.135,32.561,15.9,15.9,0,0,0,32.256,16.685Zm16.805-4.848a3.78,3.78,0,1,0,3.78,3.78,3.78,3.78,0,0,0-3.78-3.78Z" fill="#222129"/>
</svg>
