<svg xmlns="http://www.w3.org/2000/svg" width="101.56" height="44.106" viewBox="0 0 101.56 44.106">
  <path id="soundcloud-brands_1_" data-name="soundcloud-brands (1)" d="M17.681,38.38,18.6,48.7l-.921,10.84a.75.75,0,0,1-.7.7.688.688,0,0,1-.667-.7L15.427,48.7l.889-10.316a.681.681,0,0,1,.667-.667A.76.76,0,0,1,17.681,38.38Zm3.4-7.237a.817.817,0,0,0-.794.794L19.49,48.7l.794,10.84a.817.817,0,0,0,.794.794.777.777,0,0,0,.746-.794l.921-10.84-.921-16.76A.777.777,0,0,0,21.077,31.142Zm4.047-3.825a.877.877,0,0,0-.889.841l-.7,20.633.7,10.761a.877.877,0,0,0,.889.841.836.836,0,0,0,.841-.841l.841-10.761-.841-20.633a.836.836,0,0,0-.841-.841ZM1.143,42.649c-.222,0-.349.175-.4.4L0,48.7l.746,5.555c.048.222.175.4.4.4s.349-.175.4-.4L2.428,48.7l-.889-5.65c-.048-.222-.175-.4-.4-.4Zm3.746-3.476a.393.393,0,0,0-.4.4L3.476,48.7l1.016,8.9a.406.406,0,0,0,.4.444.472.472,0,0,0,.444-.4L6.475,48.7,5.333,39.57A.472.472,0,0,0,4.888,39.173ZM8.9,37.364a.55.55,0,0,0-.524.524L7.459,48.7,8.38,59.139a.572.572,0,0,0,.524.492.494.494,0,0,0,.492-.492l1.1-10.443L9.4,37.888a.5.5,0,0,0-.492-.524Zm4.015-.349a.559.559,0,0,0-.571.571L11.427,48.7l.921,10.761a.559.559,0,0,0,.571.571.631.631,0,0,0,.619-.571L14.554,48.7l-1.016-11.11a.631.631,0,0,0-.619-.571Zm38.313-17.6a1.24,1.24,0,0,0-.667-.222,1.46,1.46,0,0,0-.889.3,1.627,1.627,0,0,0-.524,1.063v.127L48.63,48.728l.27,5.158.27,5.031a1.45,1.45,0,0,0,1.413,1.365,1.375,1.375,0,0,0,1.365-1.365l.619-10.189-.619-28.171a1.528,1.528,0,0,0-.714-1.143Zm-4.238,2.428a1.4,1.4,0,0,0-.7-.222,1.347,1.347,0,0,0-.7.222,1.254,1.254,0,0,0-.571,1.063l-.048.27L44.535,48.7s0,.048.492,10.412v.048a1.2,1.2,0,0,0,.27.746,1.361,1.361,0,0,0,1.016.492A1.287,1.287,0,0,0,47.2,60a1.094,1.094,0,0,0,.4-.889l.048-1.063.492-9.3-.524-25.838a1.424,1.424,0,0,0-.619-1.063ZM29.314,25.413a.963.963,0,0,0-.921.968L27.7,48.7l.7,10.665a.945.945,0,0,0,1.889,0L31.076,48.7l-.794-22.315a.993.993,0,0,0-.968-.968ZM89.1,35.38a12.747,12.747,0,0,0-4.857.968,22.057,22.057,0,0,0-21.95-20.061,21.643,21.643,0,0,0-7.983,1.492c-.968.349-1.238.7-1.238,1.46V58.869a1.5,1.5,0,0,0,1.365,1.46H89.085A12.475,12.475,0,0,0,89.1,35.38Zm-47.09-9.57a1.26,1.26,0,0,0-1.238,1.238l-.524,21.7.524,10.412a1.251,1.251,0,0,0,1.238,1.19,1.179,1.179,0,0,0,1.19-1.19l.619-10.412-.619-21.7a1.22,1.22,0,0,0-1.19-1.238ZM33.5,24.572a1.077,1.077,0,0,0-1.016,1.063L31.87,48.7l.619,10.618a1.04,1.04,0,0,0,2.079,0l.7-10.618-.7-23.061A1.118,1.118,0,0,0,33.5,24.572Zm4.238.54a1.087,1.087,0,0,0-1.1,1.1L36.028,48.7l.619,10.539a1.118,1.118,0,0,0,1.1,1.1,1.1,1.1,0,0,0,1.1-1.1L39.5,48.7l-.667-22.49a1.077,1.077,0,0,0-1.1-1.1Z" transform="translate(0 -16.287)" fill="#fff"/>
</svg>
