<svg xmlns="http://www.w3.org/2000/svg" width="78.053" height="64.295" viewBox="0 0 78.053 64.295">
  <path id="twitter" d="M77.76,10.709a32.128,32.128,0,0,1-7.883,2.251c1.268-.215,3.142-2.512,3.89-3.444a14.5,14.5,0,0,0,2.625-4.781c.068-.137.122-.307-.015-.412a.458.458,0,0,0-.42.037,40.288,40.288,0,0,1-9.364,3.586.629.629,0,0,1-.646-.171,7.567,7.567,0,0,0-.817-.839,16.574,16.574,0,0,0-4.537-2.781,15.8,15.8,0,0,0-6.959-1.122,16.65,16.65,0,0,0-6.6,1.866A17.03,17.03,0,0,0,41.71,9.245a16.35,16.35,0,0,0-3.181,6.371,17.337,17.337,0,0,0-.171,6.725c.054.376.02.427-.32.376C25.17,20.807,14.51,16.2,5.854,6.343c-.376-.429-.581-.429-.888.032-3.788,5.678-1.951,14.8,2.781,19.282.632.6,1.278,1.2,1.978,1.739a16.383,16.383,0,0,1-6.21-1.739c-.376-.237-.563-.1-.6.324a9.732,9.732,0,0,0,.1,1.844A16.5,16.5,0,0,0,13.191,40.981a9.611,9.611,0,0,0,2.064.629,18.393,18.393,0,0,1-6.091.19c-.444-.088-.615.134-.444.561,2.678,7.305,8.464,9.479,12.8,10.715.581.1,1.161.1,1.742.239-.034.051-.068.051-.1.1-1.439,2.19-6.42,3.822-8.74,4.634a31.331,31.331,0,0,1-13.274,1.7c-.712-.1-.863-.1-1.056,0-.2.122-.024.293.2.476.9.6,1.824,1.127,2.764,1.639a43.784,43.784,0,0,0,8.874,3.549c15.945,4.4,33.9,1.168,45.881-10.727C67.206,45.345,70.5,32.464,70.5,19.563c0-.5.6-.781.951-1.049a30.845,30.845,0,0,0,6.215-6.493,1.889,1.889,0,0,0,.385-1.244v-.068C78.053,10.5,78.077,10.565,77.76,10.709Z" transform="translate(0 -2.999)" fill="#fff" fill-rule="evenodd"/>
</svg>
